<svg xmlns="http://www.w3.org/2000/svg" width="800" height="600" viewBox="0 0 800 600">
  <defs>
    <linearGradient id="g" x1="0%" y1="0%" x2="100%" y2="100%">
      <stop offset="0%" stop-color="#faf5fb"/>
      <stop offset="100%" stop-color="#c9a0dc"/>
    </linearGradient>
    <symbol id="daisy" viewBox="-12 -12 24 24">
      <ellipse cx="0" cy="-7" rx="2.8" ry="5.5" fill="#fff" opacity="0.92"/>
      <ellipse cx="0" cy="7" rx="2.8" ry="5.5" fill="#fff" opacity="0.92"/>
      <ellipse cx="-7" cy="0" rx="5.5" ry="2.8" fill="#fff" opacity="0.92"/>
      <ellipse cx="7" cy="0" rx="5.5" ry="2.8" fill="#fff" opacity="0.92"/>
      <ellipse cx="-5" cy="-5" rx="2.4" ry="4.8" fill="#fff" opacity="0.88" transform="rotate(-45)"/>
      <ellipse cx="5" cy="-5" rx="2.4" ry="4.8" fill="#fff" opacity="0.88" transform="rotate(45)"/>
      <ellipse cx="-5" cy="5" rx="2.4" ry="4.8" fill="#fff" opacity="0.88" transform="rotate(45)"/>
      <ellipse cx="5" cy="5" rx="2.4" ry="4.8" fill="#fff" opacity="0.88" transform="rotate(-45)"/>
      <circle r="3.2" fill="#fde047" opacity="0.95"/>
      <circle r="1.6" fill="#fbbf24" opacity="0.8"/>
    </symbol>
    <pattern id="floral" width="95" height="95" patternUnits="userSpaceOnUse">
      <use href="#daisy" x="22" y="28" width="26" height="26" opacity="0.85"/>
      <use href="#daisy" x="58" y="58" width="20" height="20" opacity="0.7"/>
      <use href="#daisy" x="70" y="12" width="16" height="16" opacity="0.6"/>
    </pattern>
  </defs>
  <rect width="800" height="600" fill="url(#g)"/>
  <rect width="800" height="600" fill="url(#floral)"/>
  <ellipse cx="400" cy="300" rx="300" ry="200" fill="#9b6b9e" opacity="0.06"/>
</svg>
