<svg xmlns="http://www.w3.org/2000/svg" width="800" height="600" viewBox="0 0 800 600">
  <defs>
    <linearGradient id="g" x1="0%" y1="0%" x2="100%" y2="100%">
      <stop offset="0%" stop-color="#ff6b9d"/>
      <stop offset="100%" stop-color="#e91e8c"/>
    </linearGradient>
    <symbol id="heart" viewBox="0 0 24 24">
      <path d="M12 21.35l-1.45-1.32C5.4 15.36 2 12.28 2 8.5 2 5.42 4.42 3 7.5 3c1.74 0 3.41.81 4.5 2.09C13.09 3.81 14.76 3 16.5 3 19.58 3 22 5.42 22 8.5c0 3.78-3.4 6.86-8.55 11.54L12 21.35z" fill="#fff"/>
    </symbol>
    <pattern id="hearts" width="110" height="110" patternUnits="userSpaceOnUse">
      <use href="#heart" x="12" y="10" width="22" height="22" opacity="0.22"/>
      <use href="#heart" x="62" y="48" width="16" height="16" opacity="0.16"/>
      <circle cx="88" cy="22" r="14" fill="#fff" opacity="0.1"/>
      <circle cx="28" cy="78" r="10" fill="#fff" opacity="0.08"/>
    </pattern>
  </defs>
  <rect width="800" height="600" fill="url(#g)"/>
  <rect width="800" height="600" fill="url(#hearts)"/>
  <circle cx="120" cy="90" r="70" fill="#fff" opacity="0.12"/>
  <circle cx="700" cy="520" r="90" fill="#fff" opacity="0.1"/>
  <circle cx="400" cy="300" r="130" fill="#fff" opacity="0.06"/>
  <circle cx="650" cy="180" r="40" fill="#fff" opacity="0.14"/>
  <circle cx="180" cy="450" r="55" fill="#fff" opacity="0.11"/>
</svg>
