<svg xmlns="http://www.w3.org/2000/svg" width="800" height="600" viewBox="0 0 800 600">
  <defs>
    <linearGradient id="g" x1="0%" y1="100%" x2="100%" y2="0%">
      <stop offset="0%" stop-color="#6366f1"/>
      <stop offset="100%" stop-color="#a855f7"/>
    </linearGradient>
    <pattern id="confetti" width="80" height="80" patternUnits="userSpaceOnUse">
      <rect x="6" y="4" width="7" height="12" fill="#fef08a" opacity="0.45" transform="rotate(22 9.5 10)"/>
      <rect x="38" y="10" width="6" height="10" fill="#f472b6" opacity="0.4" transform="rotate(-18 41 15)"/>
      <rect x="58" y="28" width="8" height="8" fill="#67e8f9" opacity="0.42" transform="rotate(35 62 32)"/>
      <rect x="18" y="42" width="9" height="6" fill="#fff" opacity="0.35" transform="rotate(12 22.5 45)"/>
      <rect x="48" y="52" width="7" height="11" fill="#c4b5fd" opacity="0.38" transform="rotate(-28 51.5 57.5)"/>
      <circle cx="72" cy="12" r="3" fill="#fde68a" opacity="0.5"/>
      <circle cx="12" cy="68" r="2.5" fill="#fff" opacity="0.4"/>
      <rect x="66" y="58" width="5" height="9" fill="#fda4af" opacity="0.4" transform="rotate(48 68.5 62.5)"/>
    </pattern>
  </defs>
  <rect width="800" height="600" fill="url(#g)"/>
  <rect width="800" height="600" fill="url(#confetti)"/>
  <rect x="30" y="20" width="10" height="16" fill="#fff" opacity="0.25" transform="rotate(15 35 28)"/>
  <rect x="720" y="40" width="12" height="8" fill="#fef08a" opacity="0.3" transform="rotate(-20 726 44)"/>
  <rect x="150" y="520" width="9" height="14" fill="#f9a8d4" opacity="0.28" transform="rotate(30 154.5 527)"/>
  <rect x="640" y="480" width="11" height="7" fill="#a5f3fc" opacity="0.3" transform="rotate(-12 645.5 483.5)"/>
  <circle cx="400" cy="300" r="4" fill="#fff" opacity="0.35"/>
  <circle cx="250" cy="150" r="3" fill="#fde68a" opacity="0.4"/>
  <circle cx="550" cy="420" r="3.5" fill="#fff" opacity="0.32"/>
</svg>
