<svg xmlns="http://www.w3.org/2000/svg" width="800" height="600" viewBox="0 0 800 600">
  <defs>
    <linearGradient id="sky" x1="0%" y1="0%" x2="0%" y2="100%">
      <stop offset="0%" stop-color="#0f172a"/>
      <stop offset="70%" stop-color="#0b1020"/>
      <stop offset="100%" stop-color="#1e293b"/>
    </linearGradient>
    <pattern id="stars" width="100" height="100" patternUnits="userSpaceOnUse">
      <circle cx="12" cy="18" r="1.2" fill="#fff" opacity="0.85"/>
      <circle cx="45" cy="8" r="0.9" fill="#fff" opacity="0.7"/>
      <circle cx="78" cy="32" r="1.4" fill="#fff" opacity="0.9"/>
      <circle cx="28" cy="55" r="0.8" fill="#fff" opacity="0.6"/>
      <circle cx="62" cy="68" r="1.1" fill="#fff" opacity="0.75"/>
      <circle cx="88" cy="82" r="0.7" fill="#fff" opacity="0.55"/>
      <circle cx="8" cy="88" r="1" fill="#fff" opacity="0.8"/>
      <circle cx="52" cy="42" r="0.6" fill="#fff" opacity="0.5"/>
    </pattern>
  </defs>
  <rect width="800" height="600" fill="url(#sky)"/>
  <rect width="800" height="600" fill="url(#stars)"/>
  <circle cx="680" cy="110" r="52" fill="#fde68a" opacity="0.95"/>
  <circle cx="712" cy="98" r="46" fill="#0f172a"/>
  <ellipse cx="400" cy="620" rx="520" ry="120" fill="#1e293b" opacity="0.85"/>
  <ellipse cx="200" cy="610" rx="280" ry="90" fill="#334155" opacity="0.5"/>
  <circle cx="120" cy="80" r="1.8" fill="#fff" opacity="0.9"/>
  <circle cx="320" cy="60" r="1.2" fill="#fff" opacity="0.75"/>
  <circle cx="480" cy="95" r="1.5" fill="#fff" opacity="0.85"/>
  <circle cx="560" cy="45" r="1" fill="#fff" opacity="0.65"/>
  <circle cx="90" cy="200" r="1.3" fill="#fff" opacity="0.7"/>
  <circle cx="240" cy="170" r="1.6" fill="#fff" opacity="0.8"/>
  <circle cx="400" cy="140" r="1.1" fill="#fff" opacity="0.72"/>
  <circle cx="150" cy="320" r="1.4" fill="#fff" opacity="0.68"/>
  <circle cx="300" cy="280" r="1" fill="#fff" opacity="0.6"/>
  <circle cx="520" cy="220" r="1.7" fill="#fff" opacity="0.82"/>
  <circle cx="750" cy="250" r="1.2" fill="#fff" opacity="0.74"/>
  <circle cx="60" cy="420" r="1.5" fill="#fff" opacity="0.55"/>
  <circle cx="700" cy="380" r="1.3" fill="#fff" opacity="0.62"/>
</svg>
